<?xml version="1.0" encoding="UTF-8"?>
<svg id="Camada_1" xmlns="http://www.w3.org/2000/svg" version="1.1" viewBox="0 0 600 273">
  <!-- Generator: Adobe Illustrator 30.2.1, SVG Export Plug-In . SVG Version: 2.1.1 Build 1)  -->
  <path d="M116.36,199.95l-75.87.19c-2.06,0-3.87-1.67-3.85-3.48l.14-13.58,36.32-63.2c1.09-1.89,2.41-3.27,1.35-5.76l-32.61-.06c-1.19,0-2.97-1.78-2.98-2.87l-.02-23.53c0-1.33,1.64-2.99,3.15-2.99l74.84-.06c2.27,0,3.84,1.59,3.81,3.76l-.19,14.21-37.15,65.36c-.21.37-.44,1.27-.49,1.64-.07.47,1.43,1.28,2.12,1.28l32.64-.12c1.8,0,3.9,1.5,3.89,3.2l-.05,23.96c-.81,1.09-3.03,2.02-5.05,2.03Z"/>
  <path d="M251.37,147.08l-.13,49.53c0,1.43-1.77,3.19-3.17,3.19l-24.9-.08c-2.46,0-3.68-1.47-3.68-4l-.02-82.42c0-1.07.46-2.74,1.12-3.1s2.46-.76,3.25-.76l25.96.14,1.42,7.84c8.43-7.12,18.4-10.8,29.29-9.04,12.24,1.98,22.59,11.36,22.66,24.53l.36,63.6c0,1.36-1.84,3.24-3.08,3.24l-24.93.03c-1.26,0-3.33-1.39-3.34-2.73l-.38-49.94c-.05-6.09-4.94-10.04-10.03-10.11-5.28-.07-10.4,3.56-10.42,10.08Z"/>
  <path d="M205.75,169.97c5-.06,1.63,16.92,1.02,19.78-.61,2.86-3.23,5.17-5.91,6.17-25.61,9.62-65.33,9.93-74.24-22.78-6.14-22.54-.65-52.72,24.52-61.67,11.44-4.07,23.86-4.45,35.44-.55,19.81,6.68,26.41,27.93,25.15,47.08-.16,2.38-2.76,3.68-4.99,3.68l-51.75.06c.13,8.93,7.28,14.44,15.5,14.84,6.12.3,11.78-.78,15.49-6.4l19.76-.22ZM185.08,146.89c.29-9.31-6.25-15.32-14.36-15.35-9.03-.95-16.15,6.03-15.42,15.39l29.78-.04Z"/>
  <path d="M537.81,170.42c6.72-.55,12.8-.5,19.63-.31,1.25.03,2.96,2.61,2.83,3.84l-1.27,12.16c-.47,4.49-2.56,8.09-7.04,9.82-14.92,5.75-31.33,7.55-46.97,3.56-14.35-3.66-24.35-14.81-27.27-29.13-3.53-17.27-1.69-38.48,12.09-51.09,7.82-7.16,17.93-10.29,28.34-10.88,15.38-.88,30.1,3.94,38.34,17.61,5.79,9.61,7.63,20.32,6.95,31.61-.1,1.64-1.19,3.9-3.16,3.91l-53.59.15c-.11,6.35,3.77,11.58,9.52,13.69,6.53,2.4,16.61,2.21,21.6-4.94ZM536.8,146.72c.05-9.82-6.81-15.48-15.47-15.23-4.22.12-8.46,1.3-10.83,4.28-2.54,3.2-3.83,6.96-3.33,11.16l29.63-.21Z"/>
  <path d="M460.92,138.37l.13,55.54c0,1.44-.18,5.48-2.03,5.49l-26.19.24c-1.52.01-3.52-1.53-3.52-3.25l-.05-57.5-5.52-.16c-1.24-.04-3.67-1.3-3.66-2.8l.21-22.8c.03-2.69,7.48-1.94,8.85-2.59,1.58-.75-1.45-10.32,4.25-23.06,4.73-10.57,14.62-17.97,26.47-18.47,5.36-.23,17.36-1.62,17.32,3.55l-.17,21.28c-.04,5.34-12.12-1.27-15.64,8.26-.89,2.41-.89,5.67-.41,8.59l9.58.06c1.76.01,3.68,1.3,3.68,3.17v20.4c0,2.1-1.63,3.78-3.68,3.82l-9.63.21Z"/>
  <path d="M372.4,173.87l-.02,22.73c0,1.51-2.06,3.18-3.78,3.18l-55.57.03c-1.69,0-3.24-1.49-3.24-3.31l.08-108.72c0-1.42,1.25-3.06,2.36-3.07l26.52-.05c1.55,0,3.49,1.33,3.49,3.26v78.58c0,2.2,1.66,3.71,3.81,3.71l22.57-.04c2.1,0,3.78,1.7,3.78,3.71Z"/>
  <path d="M382.33,199.68c-2.25,0-4-1.11-4.04-3.2l.04-73.15c10.82,3.08,21.04,1.96,31.47-2.09v75.25c-.22,1.37-1.72,3.07-2.95,3.08l-24.52.1Z"/>
  <path d="M378.35,113.84c.71-7.39,2.27-28.47-4.16-30.87-.42-.16-1.69.92-1.84,1.46l-4.92,18.01c-.31,1.12-2.12,2.3-3.07,2.37-1.09.08-3.29-1.6-3.31-2.85-.18-9.01,0-17.36,1.61-26.09,1.66-8.98,14.4-5.73,28.53-16.38,17.12-12.91,43.66-19.27,63.64-10.21l-12.91-.7c-16.58-.9-42.5,10.36-40.41,33.15.77,8.39,3.63,15.9,7.58,23.34.72,1.36,1.31,3.4,1.38,5.02-8.56,8.28-21.31,8.4-32.12,3.74Z"/>
  <path d="M373.73,37.16c7.28-1.92,13.51,2.77,15.18,9.44,1.56,6.24-2.72,12.84-9.09,14.51-6.43,1.68-13.24-2.18-15.05-8.78-1.67-6.1,1.98-13.32,8.97-15.16Z"/>
</svg>